<?xml version="1.0" encoding="UTF-8" ?>
<!DOCTYPE svg PUBLIC "-//W3C//DTD SVG 1.1//EN" "http://www.w3.org/Graphics/SVG/1.1/DTD/svg11.dtd">
<svg width="567pt" height="703pt" viewBox="0 0 567 703" version="1.1" xmlns="http://www.w3.org/2000/svg">
<g id="#344149ff">
</g>
<g id="#ffffffff">
<path fill="#ffffff" opacity="1.00" d=" M 252.62 28.67 C 255.62 26.02 258.55 22.24 262.97 22.40 C 276.00 22.34 289.05 22.38 302.08 22.38 C 304.40 22.16 306.29 23.58 307.86 25.11 C 318.69 35.63 330.35 45.27 341.12 55.87 C 343.06 57.85 345.65 59.91 345.42 63.00 C 345.63 78.35 345.18 93.70 345.70 109.05 C 345.59 111.46 346.17 114.38 344.13 116.18 C 334.91 125.32 325.24 134.02 315.05 142.08 C 311.82 144.85 308.24 147.25 305.42 150.46 C 304.91 151.89 305.07 153.45 305.07 154.94 C 305.80 170.05 307.06 185.14 307.70 200.25 C 332.94 203.78 358.27 206.54 383.56 209.65 C 388.77 203.41 396.34 199.77 404.03 197.61 C 409.96 199.18 415.40 202.90 419.51 207.42 C 422.13 212.10 421.10 217.84 421.41 223.00 C 421.31 229.99 421.68 237.02 420.89 243.98 C 420.71 247.34 417.83 249.48 415.32 251.25 C 412.26 253.27 409.14 255.34 405.65 256.52 C 403.35 257.24 401.08 256.05 399.01 255.20 C 394.80 253.23 390.45 251.29 387.01 248.08 C 385.26 246.70 383.56 244.43 381.04 245.02 C 367.77 246.59 354.51 248.24 341.26 250.01 C 330.42 251.82 319.35 252.24 308.66 254.87 C 311.51 317.57 313.92 380.29 316.67 443.00 C 318.13 467.98 319.15 493.00 322.08 517.87 C 323.40 528.61 325.19 539.33 328.32 549.70 C 329.10 552.43 330.37 554.99 331.83 557.42 C 368.15 558.10 405.43 549.99 436.18 530.06 C 451.11 520.04 464.02 507.28 475.58 493.57 C 479.50 488.74 483.66 484.06 486.81 478.66 C 477.74 475.07 468.47 471.98 459.39 468.46 C 459.30 468.13 459.14 467.47 459.05 467.14 C 462.73 463.66 467.15 461.11 471.22 458.13 C 487.91 446.25 504.51 434.24 520.99 422.07 C 532.13 414.60 542.34 405.81 553.67 398.62 C 553.72 414.11 551.87 429.52 551.25 444.99 C 549.81 466.25 548.15 487.50 546.92 508.78 C 546.70 512.35 546.58 515.97 545.48 519.41 C 536.47 511.97 528.06 503.83 519.16 496.28 C 513.84 506.39 507.35 515.80 501.53 525.61 C 491.93 541.22 481.31 556.33 468.27 569.28 C 460.40 576.84 452.57 584.63 443.11 590.23 C 429.69 599.55 415.34 607.41 400.91 615.02 C 384.32 623.42 367.07 630.41 349.93 637.57 C 337.16 642.22 324.82 648.01 313.13 654.92 C 300.45 662.02 289.44 672.42 282.42 685.21 C 278.91 682.65 278.00 678.02 275.00 674.99 C 268.74 668.25 262.12 661.73 254.43 656.62 C 248.67 652.73 242.26 650.02 236.06 646.94 C 218.49 638.40 200.03 631.92 182.21 623.94 C 155.63 612.11 130.09 597.68 107.08 579.81 C 100.16 573.80 93.81 567.17 87.43 560.60 C 82.25 555.32 78.23 549.09 73.82 543.19 C 69.04 536.79 65.16 529.79 60.87 523.07 C 55.42 514.23 49.77 505.49 44.94 496.28 C 38.29 502.55 31.11 508.21 24.55 514.57 C 22.68 516.39 20.52 517.87 18.29 519.21 C 16.15 500.57 15.52 481.79 13.95 463.09 C 12.76 448.01 12.11 432.89 11.10 417.79 C 10.64 411.47 10.32 405.11 10.67 398.77 C 16.77 402.37 22.27 406.87 28.00 411.00 C 33.57 415.16 39.41 418.94 44.95 423.14 C 58.87 433.92 73.50 443.76 87.46 454.50 C 93.50 459.16 99.99 463.21 105.79 468.16 C 96.50 472.24 86.75 475.16 77.24 478.67 C 87.70 494.51 100.74 508.56 115.31 520.70 C 129.68 532.42 146.21 541.44 163.86 547.17 C 182.86 553.83 202.97 556.48 223.00 557.51 C 226.29 557.63 229.59 557.52 232.88 557.32 C 237.53 546.75 239.47 535.27 241.21 523.93 C 244.96 494.07 245.87 463.97 247.50 433.96 C 248.90 406.65 249.60 379.30 251.28 352.00 C 251.27 342.65 252.31 333.34 252.43 324.00 C 252.34 317.31 253.00 310.65 253.37 303.99 C 253.57 288.28 254.69 272.61 255.31 256.92 C 255.63 255.23 254.48 253.65 252.71 253.69 C 235.48 251.58 218.27 249.21 201.02 247.24 C 194.12 246.53 187.28 245.19 180.33 245.20 C 175.76 250.81 168.97 253.67 162.40 256.19 C 158.33 257.90 154.58 254.64 151.19 252.81 C 147.97 250.57 143.42 248.46 143.21 243.97 C 142.42 237.68 142.69 231.32 142.63 225.00 C 142.69 220.11 142.47 215.17 143.50 210.36 C 144.38 206.44 148.03 204.17 151.14 202.09 C 153.95 200.42 156.74 198.38 160.03 197.83 C 167.75 199.71 175.53 203.15 180.48 209.65 C 188.80 209.14 197.02 207.70 205.29 206.74 C 222.08 204.93 238.83 202.82 255.56 200.51 C 257.44 186.57 257.45 172.47 258.78 158.48 C 258.91 155.49 259.99 151.86 257.41 149.58 C 251.98 143.95 245.29 139.77 239.58 134.46 C 234.75 129.93 229.73 125.63 224.95 121.05 C 222.80 118.93 220.18 117.18 218.61 114.56 C 217.80 111.10 217.84 107.52 217.77 104.00 C 217.79 95.33 217.52 86.65 218.17 78.00 C 218.58 72.16 217.85 66.25 218.74 60.45 C 221.10 56.68 225.10 54.32 228.11 51.11 C 235.76 43.07 244.88 36.62 252.62 28.67 M 281.26 49.32 C 275.37 49.50 269.58 51.06 264.18 53.37 C 259.24 55.40 256.20 60.01 253.13 64.12 C 249.72 68.97 245.66 73.69 244.32 79.62 C 242.68 86.25 244.41 93.12 246.55 99.42 C 248.56 105.45 253.06 110.14 257.55 114.45 C 265.98 123.16 279.42 125.92 290.97 123.13 C 299.85 121.39 306.51 114.77 312.24 108.21 C 318.77 100.71 320.66 90.14 319.61 80.49 C 318.32 72.50 312.14 66.70 307.59 60.41 C 301.81 51.98 290.86 49.60 281.26 49.32 Z" />
</g>
</svg>
